<?xml version="1.0" encoding="UTF-8" standalone="no"?>
<!DOCTYPE svg PUBLIC "-//W3C//DTD SVG 1.1//EN"
 "http://www.w3.org/Graphics/SVG/1.1/DTD/svg11.dtd">
<!-- Generated by graphviz version 2.43.0 (0)
 -->
<!-- Title: GPUInfo Pages: 1 -->
<svg width="110pt" height="288pt"
 viewBox="0.00 0.00 110.00 288.00" xmlns="http://www.w3.org/2000/svg" xmlns:xlink="http://www.w3.org/1999/xlink">

<svg id="main" version="1.1" xmlns="http://www.w3.org/2000/svg" xmlns:xlink="http://www.w3.org/1999/xlink" xml:space="preserve" onload="init(evt)">
<style type="text/css"><![CDATA[
.node, .edge {opacity: 0.7;}
.node.selected, .edge.selected {opacity: 1;}
.edge:hover path { stroke: red; }
.edge:hover polygon { stroke: red; fill: red; }
]]></style>
<script type="application/ecmascript" xlink:href="../../svg.min.js"/>
<svg id="graph" class="graph">
<g id="graph0" class="graph" transform="scale(1 1) rotate(0) translate(4 284)">
<title>GPUInfo</title>
<!-- Node1 -->
<g id="Node000001" class="node">
<title>Node1</title>
<g id="a_Node000001"><a xlink:title="Structure to hold all GPU information.">
<polygon fill="#999999" stroke="transparent" points="102,-64 0,-64 0,0 102,0 102,-64"/>
<text text-anchor="start" x="31" y="-52" font-family="Helvetica,sans-Serif" font-size="10.00">GPUInfo</text>
<text text-anchor="start" x="4" y="-37" font-family="Helvetica,sans-Serif" font-size="10.00">+</text>
<text text-anchor="start" x="17" y="-37" font-family="Helvetica,sans-Serif" font-size="10.00">count</text>
<text text-anchor="start" x="4" y="-22" font-family="Helvetica,sans-Serif" font-size="10.00">+</text>
<text text-anchor="start" x="17" y="-22" font-family="Helvetica,sans-Serif" font-size="10.00">nvidia_available</text>
<text text-anchor="start" x="49" y="-7" font-family="Helvetica,sans-Serif" font-size="10.00"> </text>
<polygon fill="#666666" stroke="#666666" points="0,-47 0,-47 102,-47 102,-47 0,-47"/>
<polygon fill="#666666" stroke="#666666" points="0,-17 0,-17 15,-17 15,-17 0,-17"/>
<polygon fill="#666666" stroke="#666666" points="15,-17 15,-17 102,-17 102,-17 15,-17"/>
<polygon fill="none" stroke="#666666" points="0,0 0,-64 102,-64 102,0 0,0"/>
</a>
</g>
</g>
<!-- Node2 -->
<g id="Node000002" class="node">
<title>Node2</title>
<g id="a_Node000002"><a xlink:href="../../df/d93/structGPUStats.html" target="_top" xlink:title="Structure to hold GPU statistics.">
<polygon fill="white" stroke="transparent" points="96.5,-280 5.5,-280 5.5,-111 96.5,-111 96.5,-280"/>
<text text-anchor="start" x="28.5" y="-267.5" font-family="Helvetica,sans-Serif" font-size="10.00">GPUStats</text>
<text text-anchor="start" x="10" y="-252.5" font-family="Helvetica,sans-Serif" font-size="10.00">+</text>
<text text-anchor="start" x="23" y="-252.5" font-family="Helvetica,sans-Serif" font-size="10.00">fan_speed</text>
<text text-anchor="start" x="10" y="-237.5" font-family="Helvetica,sans-Serif" font-size="10.00">+</text>
<text text-anchor="start" x="23" y="-237.5" font-family="Helvetica,sans-Serif" font-size="10.00">memory_free</text>
<text text-anchor="start" x="10" y="-222.5" font-family="Helvetica,sans-Serif" font-size="10.00">+</text>
<text text-anchor="start" x="23" y="-222.5" font-family="Helvetica,sans-Serif" font-size="10.00">memory_total</text>
<text text-anchor="start" x="10" y="-207.5" font-family="Helvetica,sans-Serif" font-size="10.00">+</text>
<text text-anchor="start" x="23" y="-207.5" font-family="Helvetica,sans-Serif" font-size="10.00">memory_used</text>
<text text-anchor="start" x="10" y="-192.5" font-family="Helvetica,sans-Serif" font-size="10.00">+</text>
<text text-anchor="start" x="23" y="-192.5" font-family="Helvetica,sans-Serif" font-size="10.00">name</text>
<text text-anchor="start" x="10" y="-177.5" font-family="Helvetica,sans-Serif" font-size="10.00">+</text>
<text text-anchor="start" x="23" y="-177.5" font-family="Helvetica,sans-Serif" font-size="10.00">power_usage</text>
<text text-anchor="start" x="10" y="-162.5" font-family="Helvetica,sans-Serif" font-size="10.00">+</text>
<text text-anchor="start" x="23" y="-162.5" font-family="Helvetica,sans-Serif" font-size="10.00">supported</text>
<text text-anchor="start" x="10" y="-147.5" font-family="Helvetica,sans-Serif" font-size="10.00">+</text>
<text text-anchor="start" x="23" y="-147.5" font-family="Helvetica,sans-Serif" font-size="10.00">temperature</text>
<text text-anchor="start" x="10" y="-132.5" font-family="Helvetica,sans-Serif" font-size="10.00">+</text>
<text text-anchor="start" x="23" y="-132.5" font-family="Helvetica,sans-Serif" font-size="10.00">utilization</text>
<text text-anchor="start" x="49.5" y="-117.5" font-family="Helvetica,sans-Serif" font-size="10.00"> </text>
<polygon fill="#666666" stroke="#666666" points="6,-262.5 6,-262.5 97,-262.5 97,-262.5 6,-262.5"/>
<polygon fill="#666666" stroke="#666666" points="6,-127.5 6,-127.5 21,-127.5 21,-127.5 6,-127.5"/>
<polygon fill="#666666" stroke="#666666" points="21,-127.5 21,-127.5 97,-127.5 97,-127.5 21,-127.5"/>
<polygon fill="none" stroke="#666666" points="5.5,-111 5.5,-280 96.5,-280 96.5,-111 5.5,-111"/>
</a>
</g>
</g>
<!-- Node2&#45;&gt;Node1 -->
<g id="edge1_Node000001_Node000002" class="edge">
<title>Node2&#45;&gt;Node1</title>
<g id="a_edge1_Node000001_Node000002"><a xlink:title=" ">
<path fill="none" stroke="#63b8ff" d="M51,-110.91C51,-98.96 51,-87.1 51,-76.36"/>
<polygon fill="none" stroke="#63b8ff" points="51,-76.34 47,-70.34 51,-64.34 55,-70.34 51,-76.34"/>
</a>
</g>
<text text-anchor="middle" x="68.5" y="-85" font-family="Helvetica,sans-Serif" font-size="10.00" fill="grey"> +gpus</text>
</g>
</g>
</svg>
</svg>

<style type='text/css'>
<![CDATA[
[data-mouse-over-selected='false'] { opacity: 0.7; }
[data-mouse-over-selected='true']  { opacity: 1.0; }
]]>
</style>
<script type="application/ecmascript"><![CDATA[
document.addEventListener('DOMContentLoaded', (event) => {
  highlightEdges();
  highlightAdjacentNodes();
});
]]></script>
</svg>
