<?xml version="1.0" encoding="UTF-8" standalone="no"?>
<!DOCTYPE svg PUBLIC "-//W3C//DTD SVG 1.1//EN"
 "http://www.w3.org/Graphics/SVG/1.1/DTD/svg11.dtd">
<!-- Generated by graphviz version 2.43.0 (0)
 -->
<!-- Title: src/stats.c Pages: 1 -->
<svg width="642pt" height="192pt"
 viewBox="0.00 0.00 642.00 192.00" xmlns="http://www.w3.org/2000/svg" xmlns:xlink="http://www.w3.org/1999/xlink">
<g id="graph0" class="graph" transform="scale(1 1) rotate(0) translate(4 188)">
<title>src/stats.c</title>
<!-- Node1 -->
<g id="Node000001" class="node">
<title>Node1</title>
<g id="a_Node000001"><a xlink:title="Implementation of system statistics gathering functions.">
<polygon fill="#999999" stroke="#666666" points="399.5,-184 333.5,-184 333.5,-165 399.5,-165 399.5,-184"/>
<text text-anchor="middle" x="366.5" y="-172" font-family="Helvetica,sans-Serif" font-size="10.00">src/stats.c</text>
</a>
</g>
</g>
<!-- Node2 -->
<g id="Node000002" class="node">
<title>Node2</title>
<g id="a_Node000002"><a xlink:href="../../df/dc9/system__monitor_8h.html" target="_top" xlink:title="Main header file for the system monitor application.">
<polygon fill="white" stroke="#666666" points="371.5,-129 267.5,-129 267.5,-110 371.5,-110 371.5,-129"/>
<text text-anchor="middle" x="319.5" y="-117" font-family="Helvetica,sans-Serif" font-size="10.00">system_monitor.h</text>
</a>
</g>
</g>
<!-- Node1&#45;&gt;Node2 -->
<g id="edge1_Node000001_Node000002" class="edge">
<title>Node1&#45;&gt;Node2</title>
<g id="a_edge1_Node000001_Node000002"><a xlink:title=" ">
<path fill="none" stroke="#63b8ff" d="M358.74,-164.75C352.03,-157.18 342.16,-146.05 333.99,-136.84"/>
<polygon fill="#63b8ff" stroke="#63b8ff" points="336.37,-134.25 327.12,-129.09 331.13,-138.89 336.37,-134.25"/>
</a>
</g>
</g>
<!-- Node13 -->
<g id="Node000013" class="node">
<title>Node13</title>
<g id="a_Node000013"><a xlink:title=" ">
<polygon fill="#e0e0e0" stroke="#999999" points="439.5,-129 389.5,-129 389.5,-110 439.5,-110 439.5,-129"/>
<text text-anchor="middle" x="414.5" y="-117" font-family="Helvetica,sans-Serif" font-size="10.00">stdio.h</text>
</a>
</g>
</g>
<!-- Node1&#45;&gt;Node13 -->
<g id="edge12_Node000001_Node000013" class="edge">
<title>Node1&#45;&gt;Node13</title>
<g id="a_edge12_Node000001_Node000013"><a xlink:title=" ">
<path fill="none" stroke="#63b8ff" d="M374.43,-164.75C381.35,-157.11 391.57,-145.82 399.95,-136.56"/>
<polygon fill="#63b8ff" stroke="#63b8ff" points="402.6,-138.85 406.72,-129.09 397.41,-134.15 402.6,-138.85"/>
</a>
</g>
</g>
<!-- Node3 -->
<g id="Node000003" class="node">
<title>Node3</title>
<g id="a_Node000003"><a xlink:title=" ">
<polygon fill="#e0e0e0" stroke="#999999" points="63,-74 0,-74 0,-55 63,-55 63,-74"/>
<text text-anchor="middle" x="31.5" y="-62" font-family="Helvetica,sans-Serif" font-size="10.00">ncurses.h</text>
</a>
</g>
</g>
<!-- Node2&#45;&gt;Node3 -->
<g id="edge2_Node000002_Node000003" class="edge">
<title>Node2&#45;&gt;Node3</title>
<g id="a_edge2_Node000002_Node000003"><a xlink:title=" ">
<path fill="none" stroke="#63b8ff" d="M269.75,-109.93C221.97,-101.61 147.47,-88.41 73.26,-74.1"/>
<polygon fill="#63b8ff" stroke="#63b8ff" points="73.75,-70.64 63.27,-72.17 72.42,-77.51 73.75,-70.64"/>
</a>
</g>
</g>
<!-- Node4 -->
<g id="Node000004" class="node">
<title>Node4</title>
<g id="a_Node000004"><a xlink:title=" ">
<polygon fill="#e0e0e0" stroke="#999999" points="134,-74 81,-74 81,-55 134,-55 134,-74"/>
<text text-anchor="middle" x="107.5" y="-62" font-family="Helvetica,sans-Serif" font-size="10.00">stdlib.h</text>
</a>
</g>
</g>
<!-- Node2&#45;&gt;Node4 -->
<g id="edge3_Node000002_Node000004" class="edge">
<title>Node2&#45;&gt;Node4</title>
<g id="a_edge3_Node000002_Node000004"><a xlink:title=" ">
<path fill="none" stroke="#63b8ff" d="M285.44,-109.98C246.68,-100.29 183.61,-84.53 143.9,-74.6"/>
<polygon fill="#63b8ff" stroke="#63b8ff" points="144.65,-71.18 134.1,-72.15 142.95,-77.97 144.65,-71.18"/>
</a>
</g>
</g>
<!-- Node5 -->
<g id="Node000005" class="node">
<title>Node5</title>
<g id="a_Node000005"><a xlink:title=" ">
<polygon fill="#e0e0e0" stroke="#999999" points="205,-74 152,-74 152,-55 205,-55 205,-74"/>
<text text-anchor="middle" x="178.5" y="-62" font-family="Helvetica,sans-Serif" font-size="10.00">string.h</text>
</a>
</g>
</g>
<!-- Node2&#45;&gt;Node5 -->
<g id="edge4_Node000002_Node000005" class="edge">
<title>Node2&#45;&gt;Node5</title>
<g id="a_edge4_Node000002_Node000005"><a xlink:title=" ">
<path fill="none" stroke="#63b8ff" d="M296.85,-109.98C273.65,-101.27 237.38,-87.63 211.1,-77.75"/>
<polygon fill="#63b8ff" stroke="#63b8ff" points="212.16,-74.41 201.57,-74.17 209.7,-80.97 212.16,-74.41"/>
</a>
</g>
</g>
<!-- Node6 -->
<g id="Node000006" class="node">
<title>Node6</title>
<g id="a_Node000006"><a xlink:title=" ">
<polygon fill="#e0e0e0" stroke="#999999" points="279.5,-74 223.5,-74 223.5,-55 279.5,-55 279.5,-74"/>
<text text-anchor="middle" x="251.5" y="-62" font-family="Helvetica,sans-Serif" font-size="10.00">unistd.h</text>
</a>
</g>
</g>
<!-- Node2&#45;&gt;Node6 -->
<g id="edge5_Node000002_Node000006" class="edge">
<title>Node2&#45;&gt;Node6</title>
<g id="a_edge5_Node000002_Node000006"><a xlink:title=" ">
<path fill="none" stroke="#63b8ff" d="M308.57,-109.98C298.42,-102.07 283.08,-90.11 270.85,-80.58"/>
<polygon fill="#63b8ff" stroke="#63b8ff" points="272.66,-77.56 262.62,-74.17 268.36,-83.08 272.66,-77.56"/>
</a>
</g>
</g>
<!-- Node7 -->
<g id="Node000007" class="node">
<title>Node7</title>
<g id="a_Node000007"><a xlink:href="../../dc/da7/cpu_8h.html" target="_top" xlink:title="CPU monitoring functionality.">
<polygon fill="white" stroke="#666666" points="341,-74 298,-74 298,-55 341,-55 341,-74"/>
<text text-anchor="middle" x="319.5" y="-62" font-family="Helvetica,sans-Serif" font-size="10.00">cpu.h</text>
</a>
</g>
</g>
<!-- Node2&#45;&gt;Node7 -->
<g id="edge6_Node000002_Node000007" class="edge">
<title>Node2&#45;&gt;Node7</title>
<g id="a_edge6_Node000002_Node000007"><a xlink:title=" ">
<path fill="none" stroke="#63b8ff" d="M319.5,-109.75C319.5,-102.8 319.5,-92.85 319.5,-84.13"/>
<polygon fill="#63b8ff" stroke="#63b8ff" points="323,-84.09 319.5,-74.09 316,-84.09 323,-84.09"/>
</a>
</g>
</g>
<!-- Node8 -->
<g id="Node000008" class="node">
<title>Node8</title>
<g id="a_Node000008"><a xlink:href="../../dc/d18/memory_8h.html" target="_top" xlink:title="Memory monitoring functionality.">
<polygon fill="white" stroke="#666666" points="424,-74 359,-74 359,-55 424,-55 424,-74"/>
<text text-anchor="middle" x="391.5" y="-62" font-family="Helvetica,sans-Serif" font-size="10.00">memory.h</text>
</a>
</g>
</g>
<!-- Node2&#45;&gt;Node8 -->
<g id="edge7_Node000002_Node000008" class="edge">
<title>Node2&#45;&gt;Node8</title>
<g id="a_edge7_Node000002_Node000008"><a xlink:title=" ">
<path fill="none" stroke="#63b8ff" d="M331.07,-109.98C341.92,-102 358.38,-89.88 371.38,-80.31"/>
<polygon fill="#63b8ff" stroke="#63b8ff" points="373.74,-82.92 379.72,-74.17 369.59,-77.28 373.74,-82.92"/>
</a>
</g>
</g>
<!-- Node9 -->
<g id="Node000009" class="node">
<title>Node9</title>
<g id="a_Node000009"><a xlink:href="../../d2/d50/disk_8h.html" target="_top" xlink:title="Disk monitoring functionality.">
<polygon fill="white" stroke="#666666" points="488.5,-74 442.5,-74 442.5,-55 488.5,-55 488.5,-74"/>
<text text-anchor="middle" x="465.5" y="-62" font-family="Helvetica,sans-Serif" font-size="10.00">disk.h</text>
</a>
</g>
</g>
<!-- Node2&#45;&gt;Node9 -->
<g id="edge8_Node000002_Node000009" class="edge">
<title>Node2&#45;&gt;Node9</title>
<g id="a_edge8_Node000002_Node000009"><a xlink:title=" ">
<path fill="none" stroke="#63b8ff" d="M342.96,-109.98C367.22,-101.18 405.32,-87.35 432.59,-77.45"/>
<polygon fill="#63b8ff" stroke="#63b8ff" points="433.9,-80.7 442.1,-73.99 431.51,-74.12 433.9,-80.7"/>
</a>
</g>
</g>
<!-- Node10 -->
<g id="Node000010" class="node">
<title>Node10</title>
<g id="a_Node000010"><a xlink:href="../../d3/d93/gpu_8h.html" target="_top" xlink:title="GPU monitoring functionality.">
<polygon fill="white" stroke="#666666" points="550.5,-74 506.5,-74 506.5,-55 550.5,-55 550.5,-74"/>
<text text-anchor="middle" x="528.5" y="-62" font-family="Helvetica,sans-Serif" font-size="10.00">gpu.h</text>
</a>
</g>
</g>
<!-- Node2&#45;&gt;Node10 -->
<g id="edge9_Node000002_Node000010" class="edge">
<title>Node2&#45;&gt;Node10</title>
<g id="a_edge9_Node000002_Node000010"><a xlink:title=" ">
<path fill="none" stroke="#63b8ff" d="M354.68,-109.95C388.6,-101.66 441.61,-88.55 496.3,-74.27"/>
<polygon fill="#63b8ff" stroke="#63b8ff" points="497.38,-77.61 506.17,-71.69 495.6,-70.84 497.38,-77.61"/>
</a>
</g>
</g>
<!-- Node11 -->
<g id="Node000011" class="node">
<title>Node11</title>
<g id="a_Node000011"><a xlink:href="../../d9/d94/network_8h.html" target="_top" xlink:title="Network interface monitoring functionality.">
<polygon fill="white" stroke="#666666" points="634,-74 569,-74 569,-55 634,-55 634,-74"/>
<text text-anchor="middle" x="601.5" y="-62" font-family="Helvetica,sans-Serif" font-size="10.00">network.h</text>
</a>
</g>
</g>
<!-- Node2&#45;&gt;Node11 -->
<g id="edge10_Node000002_Node000011" class="edge">
<title>Node2&#45;&gt;Node11</title>
<g id="a_edge10_Node000002_Node000011"><a xlink:title=" ">
<path fill="none" stroke="#63b8ff" d="M366.9,-109.95C413.26,-101.53 486.13,-88.16 559.12,-74.05"/>
<polygon fill="#63b8ff" stroke="#63b8ff" points="559.8,-77.48 568.95,-72.14 558.47,-70.61 559.8,-77.48"/>
</a>
</g>
</g>
<!-- Node12 -->
<g id="Node000012" class="node">
<title>Node12</title>
<g id="a_Node000012"><a xlink:title=" ">
<polygon fill="#e0e0e0" stroke="#999999" points="629.5,-19 573.5,-19 573.5,0 629.5,0 629.5,-19"/>
<text text-anchor="middle" x="601.5" y="-7" font-family="Helvetica,sans-Serif" font-size="10.00">stddef.h</text>
</a>
</g>
</g>
<!-- Node11&#45;&gt;Node12 -->
<g id="edge11_Node000011_Node000012" class="edge">
<title>Node11&#45;&gt;Node12</title>
<g id="a_edge11_Node000011_Node000012"><a xlink:title=" ">
<path fill="none" stroke="#63b8ff" d="M601.5,-54.75C601.5,-47.8 601.5,-37.85 601.5,-29.13"/>
<polygon fill="#63b8ff" stroke="#63b8ff" points="605,-29.09 601.5,-19.09 598,-29.09 605,-29.09"/>
</a>
</g>
</g>
</g>
</svg>
