<?xml version="1.0" encoding="UTF-8" standalone="no"?>
<!DOCTYPE svg PUBLIC "-//W3C//DTD SVG 1.1//EN"
 "http://www.w3.org/Graphics/SVG/1.1/DTD/svg11.dtd">
<!-- Generated by graphviz version 2.43.0 (0)
 -->
<!-- Title: include/gpu.h Pages: 1 -->
<svg width="286pt" height="137pt"
 viewBox="0.00 0.00 286.00 137.00" xmlns="http://www.w3.org/2000/svg" xmlns:xlink="http://www.w3.org/1999/xlink">

<svg id="main" version="1.1" xmlns="http://www.w3.org/2000/svg" xmlns:xlink="http://www.w3.org/1999/xlink" xml:space="preserve" onload="init(evt)">
<style type="text/css"><![CDATA[
.node, .edge {opacity: 0.7;}
.node.selected, .edge.selected {opacity: 1;}
.edge:hover path { stroke: red; }
.edge:hover polygon { stroke: red; fill: red; }
]]></style>
<script type="application/ecmascript" xlink:href="../../svg.min.js"/>
<svg id="graph" class="graph">
<g id="graph0" class="graph" transform="scale(1 1) rotate(0) translate(4 133)">
<title>include/gpu.h</title>
<!-- Node1 -->
<g id="Node000001" class="node">
<title>Node1</title>
<g id="a_Node000001"><a xlink:title="GPU monitoring functionality.">
<polygon fill="#999999" stroke="#666666" points="229,-129 147,-129 147,-110 229,-110 229,-129"/>
<text text-anchor="middle" x="188" y="-117" font-family="Helvetica,sans-Serif" font-size="10.00">include/gpu.h</text>
</a>
</g>
</g>
<!-- Node2 -->
<g id="Node000002" class="node">
<title>Node2</title>
<g id="a_Node000002"><a xlink:href="../../df/dc9/system__monitor_8h.html" target="_top" xlink:title="Main header file for the system monitor application.">
<polygon fill="white" stroke="#666666" points="199.5,-74 56.5,-74 56.5,-55 199.5,-55 199.5,-74"/>
<text text-anchor="middle" x="128" y="-62" font-family="Helvetica,sans-Serif" font-size="10.00">include/system_monitor.h</text>
</a>
</g>
</g>
<!-- Node1&#45;&gt;Node2 -->
<g id="edge1_Node000001_Node000002" class="edge">
<title>Node1&#45;&gt;Node2</title>
<g id="a_edge1_Node000001_Node000002"><a xlink:title=" ">
<path fill="none" stroke="#63b8ff" d="M170.82,-103.32C160.12,-93.87 146.74,-82.06 137.82,-74.17"/>
<polygon fill="#63b8ff" stroke="#63b8ff" points="168.55,-105.99 178.36,-109.98 173.18,-100.74 168.55,-105.99"/>
</a>
</g>
</g>
<!-- Node6 -->
<g id="Node000006" class="node">
<title>Node6</title>
<g id="a_Node000006"><a xlink:href="../../d9/da6/gpu_8c.html" target="_top" xlink:title="Implementation of GPU monitoring functionality.">
<polygon fill="white" stroke="#666666" points="278,-74 218,-74 218,-55 278,-55 278,-74"/>
<text text-anchor="middle" x="248" y="-62" font-family="Helvetica,sans-Serif" font-size="10.00">src/gpu.c</text>
</a>
</g>
</g>
<!-- Node1&#45;&gt;Node6 -->
<g id="edge5_Node000001_Node000006" class="edge">
<title>Node1&#45;&gt;Node6</title>
<g id="a_edge5_Node000001_Node000006"><a xlink:title=" ">
<path fill="none" stroke="#63b8ff" d="M205.18,-103.32C215.88,-93.87 229.26,-82.06 238.18,-74.17"/>
<polygon fill="#63b8ff" stroke="#63b8ff" points="202.82,-100.74 197.64,-109.98 207.45,-105.99 202.82,-100.74"/>
</a>
</g>
</g>
<!-- Node3 -->
<g id="Node000003" class="node">
<title>Node3</title>
<g id="a_Node000003"><a xlink:href="../../db/d85/display_8c.html" target="_top" xlink:title="Implementation of display&#45;related functions.">
<polygon fill="white" stroke="#666666" points="76,-19 0,-19 0,0 76,0 76,-19"/>
<text text-anchor="middle" x="38" y="-7" font-family="Helvetica,sans-Serif" font-size="10.00">src/display.c</text>
</a>
</g>
</g>
<!-- Node2&#45;&gt;Node3 -->
<g id="edge2_Node000002_Node000003" class="edge">
<title>Node2&#45;&gt;Node3</title>
<g id="a_edge2_Node000002_Node000003"><a xlink:title=" ">
<path fill="none" stroke="#63b8ff" d="M104.56,-49.7C88.16,-40.04 66.77,-27.44 52.72,-19.17"/>
<polygon fill="#63b8ff" stroke="#63b8ff" points="103.15,-52.93 113.54,-54.98 106.7,-46.89 103.15,-52.93"/>
</a>
</g>
</g>
<!-- Node4 -->
<g id="Node000004" class="node">
<title>Node4</title>
<g id="a_Node000004"><a xlink:href="../../d0/d29/main_8c.html" target="_top" xlink:title="Main entry point for the system monitor application.">
<polygon fill="white" stroke="#666666" points="161.5,-19 94.5,-19 94.5,0 161.5,0 161.5,-19"/>
<text text-anchor="middle" x="128" y="-7" font-family="Helvetica,sans-Serif" font-size="10.00">src/main.c</text>
</a>
</g>
</g>
<!-- Node2&#45;&gt;Node4 -->
<g id="edge3_Node000002_Node000004" class="edge">
<title>Node2&#45;&gt;Node4</title>
<g id="a_edge3_Node000002_Node000004"><a xlink:title=" ">
<path fill="none" stroke="#63b8ff" d="M128,-44.66C128,-35.93 128,-25.99 128,-19.09"/>
<polygon fill="#63b8ff" stroke="#63b8ff" points="124.5,-44.75 128,-54.75 131.5,-44.75 124.5,-44.75"/>
</a>
</g>
</g>
<!-- Node5 -->
<g id="Node000005" class="node">
<title>Node5</title>
<g id="a_Node000005"><a xlink:href="../../da/df1/stats_8c.html" target="_top" xlink:title="Implementation of system statistics gathering functions.">
<polygon fill="white" stroke="#666666" points="246,-19 180,-19 180,0 246,0 246,-19"/>
<text text-anchor="middle" x="213" y="-7" font-family="Helvetica,sans-Serif" font-size="10.00">src/stats.c</text>
</a>
</g>
</g>
<!-- Node2&#45;&gt;Node5 -->
<g id="edge4_Node000002_Node000005" class="edge">
<title>Node2&#45;&gt;Node5</title>
<g id="a_edge4_Node000002_Node000005"><a xlink:title=" ">
<path fill="none" stroke="#63b8ff" d="M150.57,-49.42C166,-39.81 185.95,-27.37 199.09,-19.17"/>
<polygon fill="#63b8ff" stroke="#63b8ff" points="148.29,-46.72 141.66,-54.98 151.99,-52.66 148.29,-46.72"/>
</a>
</g>
</g>
</g>
</svg>
</svg>

<style type='text/css'>
<![CDATA[
[data-mouse-over-selected='false'] { opacity: 0.7; }
[data-mouse-over-selected='true']  { opacity: 1.0; }
]]>
</style>
<script type="application/ecmascript"><![CDATA[
document.addEventListener('DOMContentLoaded', (event) => {
  highlightEdges();
  highlightAdjacentNodes();
});
]]></script>
</svg>
