<?xml version="1.0" encoding="UTF-8" standalone="no"?>
<!DOCTYPE svg PUBLIC "-//W3C//DTD SVG 1.1//EN"
 "http://www.w3.org/Graphics/SVG/1.1/DTD/svg11.dtd">
<!-- Generated by graphviz version 2.43.0 (0)
 -->
<!-- Title: NetworkStats Pages: 1 -->
<svg width="129pt" height="303pt"
 viewBox="0.00 0.00 129.00 303.00" xmlns="http://www.w3.org/2000/svg" xmlns:xlink="http://www.w3.org/1999/xlink">

<svg id="main" version="1.1" xmlns="http://www.w3.org/2000/svg" xmlns:xlink="http://www.w3.org/1999/xlink" xml:space="preserve" onload="init(evt)">
<style type="text/css"><![CDATA[
.node, .edge {opacity: 0.7;}
.node.selected, .edge.selected {opacity: 1;}
.edge:hover path { stroke: red; }
.edge:hover polygon { stroke: red; fill: red; }
]]></style>
<script type="application/ecmascript" xlink:href="../../svg.min.js"/>
<svg id="graph" class="graph">
<g id="graph0" class="graph" transform="scale(1 1) rotate(0) translate(4 299)">
<title>NetworkStats</title>
<!-- Node1 -->
<g id="Node000001" class="node">
<title>Node1</title>
<g id="a_Node000001"><a xlink:title="Structure to hold all network interface statistics.">
<polygon fill="#999999" stroke="transparent" points="108.5,-49 11.5,-49 11.5,0 108.5,0 108.5,-49"/>
<text text-anchor="start" x="27" y="-36.5" font-family="Helvetica,sans-Serif" font-size="10.00">NetworkStats</text>
<text text-anchor="start" x="16" y="-21.5" font-family="Helvetica,sans-Serif" font-size="10.00">+</text>
<text text-anchor="start" x="29" y="-21.5" font-family="Helvetica,sans-Serif" font-size="10.00">interface_count</text>
<text text-anchor="start" x="58.5" y="-6.5" font-family="Helvetica,sans-Serif" font-size="10.00"> </text>
<polygon fill="#666666" stroke="#666666" points="12,-31.5 12,-31.5 109,-31.5 109,-31.5 12,-31.5"/>
<polygon fill="#666666" stroke="#666666" points="12,-16.5 12,-16.5 27,-16.5 27,-16.5 12,-16.5"/>
<polygon fill="#666666" stroke="#666666" points="27,-16.5 27,-16.5 109,-16.5 109,-16.5 27,-16.5"/>
<polygon fill="none" stroke="#666666" points="11.5,0 11.5,-49 108.5,-49 108.5,0 11.5,0"/>
</a>
</g>
</g>
<!-- Node2 -->
<g id="Node000002" class="node">
<title>Node2</title>
<g id="a_Node000002"><a xlink:href="../../dc/d2f/structNetworkInterfaceStats.html" target="_top" xlink:title="Structure to hold statistics for a single network interface.">
<polygon fill="white" stroke="transparent" points="120,-295 0,-295 0,-96 120,-96 120,-295"/>
<text text-anchor="start" x="5" y="-282.5" font-family="Helvetica,sans-Serif" font-size="10.00">NetworkInterfaceStats</text>
<text text-anchor="start" x="7.5" y="-267.5" font-family="Helvetica,sans-Serif" font-size="10.00">+</text>
<text text-anchor="start" x="24" y="-267.5" font-family="Helvetica,sans-Serif" font-size="10.00">bytes_received</text>
<text text-anchor="start" x="7.5" y="-252.5" font-family="Helvetica,sans-Serif" font-size="10.00">+</text>
<text text-anchor="start" x="24" y="-252.5" font-family="Helvetica,sans-Serif" font-size="10.00">bytes_sent</text>
<text text-anchor="start" x="7.5" y="-237.5" font-family="Helvetica,sans-Serif" font-size="10.00">+</text>
<text text-anchor="start" x="24" y="-237.5" font-family="Helvetica,sans-Serif" font-size="10.00">drops_in</text>
<text text-anchor="start" x="7.5" y="-222.5" font-family="Helvetica,sans-Serif" font-size="10.00">+</text>
<text text-anchor="start" x="24" y="-222.5" font-family="Helvetica,sans-Serif" font-size="10.00">drops_out</text>
<text text-anchor="start" x="7.5" y="-207.5" font-family="Helvetica,sans-Serif" font-size="10.00">+</text>
<text text-anchor="start" x="24" y="-207.5" font-family="Helvetica,sans-Serif" font-size="10.00">errors_in</text>
<text text-anchor="start" x="7.5" y="-192.5" font-family="Helvetica,sans-Serif" font-size="10.00">+</text>
<text text-anchor="start" x="24" y="-192.5" font-family="Helvetica,sans-Serif" font-size="10.00">errors_out</text>
<text text-anchor="start" x="7.5" y="-177.5" font-family="Helvetica,sans-Serif" font-size="10.00">+</text>
<text text-anchor="start" x="24" y="-177.5" font-family="Helvetica,sans-Serif" font-size="10.00">interface</text>
<text text-anchor="start" x="7.5" y="-162.5" font-family="Helvetica,sans-Serif" font-size="10.00">+</text>
<text text-anchor="start" x="24" y="-162.5" font-family="Helvetica,sans-Serif" font-size="10.00">packets_received</text>
<text text-anchor="start" x="7.5" y="-147.5" font-family="Helvetica,sans-Serif" font-size="10.00">+</text>
<text text-anchor="start" x="24" y="-147.5" font-family="Helvetica,sans-Serif" font-size="10.00">packets_sent</text>
<text text-anchor="start" x="7.5" y="-132.5" font-family="Helvetica,sans-Serif" font-size="10.00">+</text>
<text text-anchor="start" x="24" y="-132.5" font-family="Helvetica,sans-Serif" font-size="10.00">receive_speed</text>
<text text-anchor="start" x="7.5" y="-117.5" font-family="Helvetica,sans-Serif" font-size="10.00">+</text>
<text text-anchor="start" x="24" y="-117.5" font-family="Helvetica,sans-Serif" font-size="10.00">send_speed</text>
<text text-anchor="start" x="58" y="-102.5" font-family="Helvetica,sans-Serif" font-size="10.00"> </text>
<polygon fill="#666666" stroke="#666666" points="0,-277.5 0,-277.5 120,-277.5 120,-277.5 0,-277.5"/>
<polygon fill="#666666" stroke="#666666" points="0,-112.5 0,-112.5 22,-112.5 22,-112.5 0,-112.5"/>
<polygon fill="#666666" stroke="#666666" points="22,-112.5 22,-112.5 120,-112.5 120,-112.5 22,-112.5"/>
<polygon fill="none" stroke="#666666" points="0,-96 0,-295 120,-295 120,-96 0,-96"/>
</a>
</g>
</g>
<!-- Node2&#45;&gt;Node1 -->
<g id="edge1_Node000001_Node000002" class="edge">
<title>Node2&#45;&gt;Node1</title>
<g id="a_edge1_Node000001_Node000002"><a xlink:title=" ">
<path fill="none" stroke="#63b8ff" d="M60,-95.7C60,-83.51 60,-71.73 60,-61.42"/>
<polygon fill="none" stroke="#63b8ff" points="60,-61.21 56,-55.21 60,-49.21 64,-55.21 60,-61.21"/>
</a>
</g>
<text text-anchor="middle" x="90.5" y="-70" font-family="Helvetica,sans-Serif" font-size="10.00" fill="grey"> +interfaces</text>
</g>
</g>
</svg>
</svg>

<style type='text/css'>
<![CDATA[
[data-mouse-over-selected='false'] { opacity: 0.7; }
[data-mouse-over-selected='true']  { opacity: 1.0; }
]]>
</style>
<script type="application/ecmascript"><![CDATA[
document.addEventListener('DOMContentLoaded', (event) => {
  highlightEdges();
  highlightAdjacentNodes();
});
]]></script>
</svg>
