<?xml version="1.0" encoding="UTF-8" standalone="no"?>
<!DOCTYPE svg PUBLIC "-//W3C//DTD SVG 1.1//EN"
 "http://www.w3.org/Graphics/SVG/1.1/DTD/svg11.dtd">
<!-- Generated by graphviz version 2.43.0 (0)
 -->
<!-- Title: DiskInfo Pages: 1 -->
<svg width="100pt" height="273pt"
 viewBox="0.00 0.00 100.00 273.00" xmlns="http://www.w3.org/2000/svg" xmlns:xlink="http://www.w3.org/1999/xlink">
<g id="graph0" class="graph" transform="scale(1 1) rotate(0) translate(4 269)">
<title>DiskInfo</title>
<!-- Node1 -->
<g id="Node000001" class="node">
<title>Node1</title>
<g id="a_Node000001"><a xlink:title="Structure to hold all disk statistics.">
<polygon fill="#999999" stroke="transparent" points="71.5,-49 20.5,-49 20.5,0 71.5,0 71.5,-49"/>
<text text-anchor="start" x="26" y="-36.5" font-family="Helvetica,sans-Serif" font-size="10.00">DiskInfo</text>
<text text-anchor="start" x="25.5" y="-21.5" font-family="Helvetica,sans-Serif" font-size="10.00">+</text>
<text text-anchor="start" x="39" y="-21.5" font-family="Helvetica,sans-Serif" font-size="10.00">count</text>
<text text-anchor="start" x="44.5" y="-6.5" font-family="Helvetica,sans-Serif" font-size="10.00"> </text>
<polygon fill="#666666" stroke="#666666" points="21,-31.5 21,-31.5 72,-31.5 72,-31.5 21,-31.5"/>
<polygon fill="#666666" stroke="#666666" points="21,-16.5 21,-16.5 37,-16.5 37,-16.5 21,-16.5"/>
<polygon fill="#666666" stroke="#666666" points="37,-16.5 37,-16.5 72,-16.5 72,-16.5 37,-16.5"/>
<polygon fill="none" stroke="#666666" points="20.5,0 20.5,-49 71.5,-49 71.5,0 20.5,0"/>
</a>
</g>
</g>
<!-- Node2 -->
<g id="Node000002" class="node">
<title>Node2</title>
<g id="a_Node000002"><a xlink:href="../../dd/d20/structDiskStats.html" target="_top" xlink:title="Structure to hold disk partition information.">
<polygon fill="white" stroke="transparent" points="92,-265 0,-265 0,-96 92,-96 92,-265"/>
<text text-anchor="start" x="22.5" y="-252.5" font-family="Helvetica,sans-Serif" font-size="10.00">DiskStats</text>
<text text-anchor="start" x="4" y="-237.5" font-family="Helvetica,sans-Serif" font-size="10.00">+</text>
<text text-anchor="start" x="17" y="-237.5" font-family="Helvetica,sans-Serif" font-size="10.00">available</text>
<text text-anchor="start" x="4" y="-222.5" font-family="Helvetica,sans-Serif" font-size="10.00">+</text>
<text text-anchor="start" x="17" y="-222.5" font-family="Helvetica,sans-Serif" font-size="10.00">device</text>
<text text-anchor="start" x="4" y="-207.5" font-family="Helvetica,sans-Serif" font-size="10.00">+</text>
<text text-anchor="start" x="17" y="-207.5" font-family="Helvetica,sans-Serif" font-size="10.00">free</text>
<text text-anchor="start" x="4" y="-192.5" font-family="Helvetica,sans-Serif" font-size="10.00">+</text>
<text text-anchor="start" x="17" y="-192.5" font-family="Helvetica,sans-Serif" font-size="10.00">io_in_progress</text>
<text text-anchor="start" x="4" y="-177.5" font-family="Helvetica,sans-Serif" font-size="10.00">+</text>
<text text-anchor="start" x="17" y="-177.5" font-family="Helvetica,sans-Serif" font-size="10.00">mount_point</text>
<text text-anchor="start" x="4" y="-162.5" font-family="Helvetica,sans-Serif" font-size="10.00">+</text>
<text text-anchor="start" x="17" y="-162.5" font-family="Helvetica,sans-Serif" font-size="10.00">reads</text>
<text text-anchor="start" x="4" y="-147.5" font-family="Helvetica,sans-Serif" font-size="10.00">+</text>
<text text-anchor="start" x="17" y="-147.5" font-family="Helvetica,sans-Serif" font-size="10.00">total</text>
<text text-anchor="start" x="4" y="-132.5" font-family="Helvetica,sans-Serif" font-size="10.00">+</text>
<text text-anchor="start" x="17" y="-132.5" font-family="Helvetica,sans-Serif" font-size="10.00">usage</text>
<text text-anchor="start" x="4" y="-117.5" font-family="Helvetica,sans-Serif" font-size="10.00">+</text>
<text text-anchor="start" x="17" y="-117.5" font-family="Helvetica,sans-Serif" font-size="10.00">writes</text>
<text text-anchor="start" x="44" y="-102.5" font-family="Helvetica,sans-Serif" font-size="10.00"> </text>
<polygon fill="#666666" stroke="#666666" points="0,-247.5 0,-247.5 92,-247.5 92,-247.5 0,-247.5"/>
<polygon fill="#666666" stroke="#666666" points="0,-112.5 0,-112.5 15,-112.5 15,-112.5 0,-112.5"/>
<polygon fill="#666666" stroke="#666666" points="15,-112.5 15,-112.5 92,-112.5 92,-112.5 15,-112.5"/>
<polygon fill="none" stroke="#666666" points="0,-96 0,-265 92,-265 92,-96 0,-96"/>
</a>
</g>
</g>
<!-- Node2&#45;&gt;Node1 -->
<g id="edge1_Node000001_Node000002" class="edge">
<title>Node2&#45;&gt;Node1</title>
<g id="a_edge1_Node000001_Node000002"><a xlink:title=" ">
<path fill="none" stroke="#63b8ff" d="M46,-95.74C46,-83.74 46,-71.95 46,-61.57"/>
<polygon fill="none" stroke="#63b8ff" points="46,-61.26 42,-55.26 46,-49.26 50,-55.26 46,-61.26"/>
</a>
</g>
<text text-anchor="middle" x="64.5" y="-70" font-family="Helvetica,sans-Serif" font-size="10.00" fill="grey"> +disks</text>
</g>
</g>
</svg>
