<?xml version="1.0" encoding="UTF-8" standalone="no"?>
<!DOCTYPE svg PUBLIC "-//W3C//DTD SVG 1.1//EN"
 "http://www.w3.org/Graphics/SVG/1.1/DTD/svg11.dtd">
<!-- Generated by graphviz version 2.43.0 (0)
 -->
<!-- Title: SystemStats Pages: 1 -->
<!--zoomable 534 -->

<svg id="main" version="1.1" xmlns="http://www.w3.org/2000/svg" xmlns:xlink="http://www.w3.org/1999/xlink" xml:space="preserve" onload="init(evt)">
<style type="text/css"><![CDATA[
.node, .edge {opacity: 0.7;}
.node.selected, .edge.selected {opacity: 1;}
.edge:hover path { stroke: red; }
.edge:hover polygon { stroke: red; fill: red; }
]]></style>

<defs>
  <circle id="rim" cx="0" cy="0" r="7"/>
  <circle id="rim2" cx="0" cy="0" r="3.5"/>
  <g id="zoomPlus">
    <use xlink:href="#rim" fill="#404040"><set attributeName="fill" to="#808080" begin="zoomplus.mouseover" end="zoomplus.mouseout"/></use>
    <path d="M-4,0h8M0,-4v8" fill="none" stroke="white" stroke-width="1.5" pointer-events="none"/>
  </g>
  <g id="zoomMin">
    <use xlink:href="#rim" fill="#404040"><set attributeName="fill" to="#808080" begin="zoomminus.mouseover" end="zoomminus.mouseout"/></use>
    <path d="M-4,0h8" fill="none" stroke="white" stroke-width="1.5" pointer-events="none"/>
  </g>
  <g id="arrowUp" transform="translate(30 24)">
    <use xlink:href="#rim"/>
    <path pointer-events="none" fill="none" stroke="white" stroke-width="1.5" d="M0,-3.0v7 M-2.5,-0.5L0,-3.0L2.5,-0.5"/>
  </g>
  <g id="arrowRight" transform="rotate(90) translate(36 -43)">
    <use xlink:href="#rim"/>
    <path pointer-events="none" fill="none" stroke="white" stroke-width="1.5" d="M0,-3.0v7 M-2.5,-0.5L0,-3.0L2.5,-0.5"/>
  </g>
  <g id="arrowDown" transform="rotate(180) translate(-30 -48)">
    <use xlink:href="#rim"/>
    <path pointer-events="none" fill="none" stroke="white" stroke-width="1.5" d="M0,-3.0v7 M-2.5,-0.5L0,-3.0L2.5,-0.5"/>
  </g>
  <g id="arrowLeft" transform="rotate(270) translate(-36 17)">
    <use xlink:href="#rim"/>
    <path pointer-events="none" fill="none" stroke="white" stroke-width="1.5" d="M0,-3.0v7 M-2.5,-0.5L0,-3.0L2.5,-0.5"/>
  </g>
  <g id="resetDef">
    <use xlink:href="#rim2" fill="#404040"><set attributeName="fill" to="#808080" begin="reset.mouseover" end="reset.mouseout"/></use>
  </g>
</defs>
<script type="application/ecmascript">
var viewWidth = 517;
var viewHeight = 534;
var sectionId = 'dynsection-0';
</script>
<script type="application/ecmascript" xlink:href="../../svg.min.js"/>
<svg id="graph" class="graph">
<g id="viewport">
<title>SystemStats</title>
<!-- Node1 -->
<g id="Node000001" class="node">
<title>Node1</title>
<g id="a_Node000001"><a xlink:title="Structure to hold system statistics.">
<polygon fill="#999999" stroke="transparent" points="265.5,-49 193.5,-49 193.5,0 265.5,0 265.5,-49"/>
<text text-anchor="start" x="198.5" y="-36.5" font-family="Helvetica,sans-Serif" font-size="10.00">SystemStats</text>
<text text-anchor="start" x="227.5" y="-21.5" font-family="Helvetica,sans-Serif" font-size="10.00"> </text>
<text text-anchor="start" x="227.5" y="-6.5" font-family="Helvetica,sans-Serif" font-size="10.00"> </text>
<polygon fill="#666666" stroke="#666666" points="193.5,-31.5 193.5,-31.5 265.5,-31.5 265.5,-31.5 193.5,-31.5"/>
<polygon fill="#666666" stroke="#666666" points="193.5,-16.5 193.5,-16.5 265.5,-16.5 265.5,-16.5 193.5,-16.5"/>
<polygon fill="none" stroke="#666666" points="193.5,0 193.5,-49 265.5,-49 265.5,0 193.5,0"/>
</a>
</g>
</g>
<!-- Node2 -->
<g id="Node000002" class="node">
<title>Node2</title>
<g id="a_Node000002"><a xlink:href="../../d7/df7/structCPUStats.html" target="_top" xlink:title="Structure to hold CPU statistics.">
<polygon fill="white" stroke="transparent" points="85,-227.5 0,-227.5 0,-148.5 85,-148.5 85,-227.5"/>
<text text-anchor="start" x="20" y="-215" font-family="Helvetica,sans-Serif" font-size="10.00">CPUStats</text>
<text text-anchor="start" x="4.5" y="-200" font-family="Helvetica,sans-Serif" font-size="10.00">+</text>
<text text-anchor="start" x="17.5" y="-200" font-family="Helvetica,sans-Serif" font-size="10.00">cores</text>
<text text-anchor="start" x="4.5" y="-185" font-family="Helvetica,sans-Serif" font-size="10.00">+</text>
<text text-anchor="start" x="17.5" y="-185" font-family="Helvetica,sans-Serif" font-size="10.00">model_name</text>
<text text-anchor="start" x="4.5" y="-170" font-family="Helvetica,sans-Serif" font-size="10.00">+</text>
<text text-anchor="start" x="17.5" y="-170" font-family="Helvetica,sans-Serif" font-size="10.00">usage</text>
<text text-anchor="start" x="41" y="-155" font-family="Helvetica,sans-Serif" font-size="10.00"> </text>
<polygon fill="#666666" stroke="#666666" points="0.5,-210 0.5,-210 85.5,-210 85.5,-210 0.5,-210"/>
<polygon fill="#666666" stroke="#666666" points="0.5,-165 0.5,-165 15.5,-165 15.5,-165 0.5,-165"/>
<polygon fill="#666666" stroke="#666666" points="15.5,-165 15.5,-165 85.5,-165 85.5,-165 15.5,-165"/>
<polygon fill="none" stroke="#666666" points="0,-148.5 0,-227.5 85,-227.5 85,-148.5 0,-148.5"/>
</a>
</g>
</g>
<!-- Node2&#45;&gt;Node1 -->
<g id="edge1_Node000001_Node000002" class="edge">
<title>Node2&#45;&gt;Node1</title>
<g id="a_edge1_Node000001_Node000002"><a xlink:title=" ">
<path fill="none" stroke="#63b8ff" d="M59.96,-148.32C68.82,-131.17 80.65,-111.44 94.5,-96 117.94,-69.88 153.35,-51.9 182.03,-40.63"/>
<polygon fill="none" stroke="#63b8ff" points="182.22,-40.56 186.43,-34.71 193.45,-36.35 189.24,-42.2 182.22,-40.56"/>
</a>
</g>
<text text-anchor="middle" x="144" y="-70" font-family="Helvetica,sans-Serif" font-size="10.00" fill="grey"> +cpu</text>
</g>
<!-- Node3 -->
<g id="Node000003" class="node">
<title>Node3</title>
<g id="a_Node000003"><a xlink:href="../../da/d4f/structMemoryStats.html" target="_top" xlink:title="Structure to hold memory statistics.">
<polygon fill="white" stroke="transparent" points="185.5,-280 103.5,-280 103.5,-96 185.5,-96 185.5,-280"/>
<text text-anchor="start" x="111.5" y="-268" font-family="Helvetica,sans-Serif" font-size="10.00">MemoryStats</text>
<text text-anchor="start" x="107.5" y="-253" font-family="Helvetica,sans-Serif" font-size="10.00">+</text>
<text text-anchor="start" x="120.5" y="-253" font-family="Helvetica,sans-Serif" font-size="10.00">available</text>
<text text-anchor="start" x="107.5" y="-238" font-family="Helvetica,sans-Serif" font-size="10.00">+</text>
<text text-anchor="start" x="120.5" y="-238" font-family="Helvetica,sans-Serif" font-size="10.00">buffers</text>
<text text-anchor="start" x="107.5" y="-223" font-family="Helvetica,sans-Serif" font-size="10.00">+</text>
<text text-anchor="start" x="120.5" y="-223" font-family="Helvetica,sans-Serif" font-size="10.00">cached</text>
<text text-anchor="start" x="107.5" y="-208" font-family="Helvetica,sans-Serif" font-size="10.00">+</text>
<text text-anchor="start" x="120.5" y="-208" font-family="Helvetica,sans-Serif" font-size="10.00">free</text>
<text text-anchor="start" x="107.5" y="-193" font-family="Helvetica,sans-Serif" font-size="10.00">+</text>
<text text-anchor="start" x="120.5" y="-193" font-family="Helvetica,sans-Serif" font-size="10.00">swap_free</text>
<text text-anchor="start" x="107.5" y="-178" font-family="Helvetica,sans-Serif" font-size="10.00">+</text>
<text text-anchor="start" x="120.5" y="-178" font-family="Helvetica,sans-Serif" font-size="10.00">swap_total</text>
<text text-anchor="start" x="107.5" y="-163" font-family="Helvetica,sans-Serif" font-size="10.00">+</text>
<text text-anchor="start" x="120.5" y="-163" font-family="Helvetica,sans-Serif" font-size="10.00">swap_usage</text>
<text text-anchor="start" x="107.5" y="-148" font-family="Helvetica,sans-Serif" font-size="10.00">+</text>
<text text-anchor="start" x="120.5" y="-148" font-family="Helvetica,sans-Serif" font-size="10.00">total</text>
<text text-anchor="start" x="107.5" y="-133" font-family="Helvetica,sans-Serif" font-size="10.00">+</text>
<text text-anchor="start" x="120.5" y="-133" font-family="Helvetica,sans-Serif" font-size="10.00">usage</text>
<text text-anchor="start" x="107.5" y="-118" font-family="Helvetica,sans-Serif" font-size="10.00">+</text>
<text text-anchor="start" x="120.5" y="-118" font-family="Helvetica,sans-Serif" font-size="10.00">used</text>
<text text-anchor="start" x="142.5" y="-103" font-family="Helvetica,sans-Serif" font-size="10.00"> </text>
<polygon fill="#666666" stroke="#666666" points="103.5,-263 103.5,-263 185.5,-263 185.5,-263 103.5,-263"/>
<polygon fill="#666666" stroke="#666666" points="103.5,-113 103.5,-113 118.5,-113 118.5,-113 103.5,-113"/>
<polygon fill="#666666" stroke="#666666" points="118.5,-113 118.5,-113 185.5,-113 185.5,-113 118.5,-113"/>
<polygon fill="none" stroke="#666666" points="103.5,-96 103.5,-280 185.5,-280 185.5,-96 103.5,-96"/>
</a>
</g>
</g>
<!-- Node3&#45;&gt;Node1 -->
<g id="edge2_Node000001_Node000003" class="edge">
<title>Node3&#45;&gt;Node1</title>
<g id="a_edge2_Node000001_Node000003"><a xlink:title=" ">
<path fill="none" stroke="#63b8ff" d="M158.34,-95.95C162.01,-85.73 166.65,-75.83 172.5,-67 175.71,-62.15 179.7,-57.68 184.05,-53.6"/>
<polygon fill="none" stroke="#63b8ff" points="184.18,-53.49 186.22,-46.58 193.39,-45.8 191.35,-52.72 184.18,-53.49"/>
</a>
</g>
<text text-anchor="middle" x="199" y="-70" font-family="Helvetica,sans-Serif" font-size="10.00" fill="grey"> +memory</text>
</g>
<!-- Node4 -->
<g id="Node000004" class="node">
<title>Node4</title>
<g id="a_Node000004"><a xlink:href="../../d5/dde/structDiskInfo.html" target="_top" xlink:title="Structure to hold all disk statistics.">
<polygon fill="white" stroke="transparent" points="255,-212.5 204,-212.5 204,-163.5 255,-163.5 255,-212.5"/>
<text text-anchor="start" x="209.5" y="-200" font-family="Helvetica,sans-Serif" font-size="10.00">DiskInfo</text>
<text text-anchor="start" x="209" y="-185" font-family="Helvetica,sans-Serif" font-size="10.00">+</text>
<text text-anchor="start" x="222.5" y="-185" font-family="Helvetica,sans-Serif" font-size="10.00">count</text>
<text text-anchor="start" x="228" y="-170" font-family="Helvetica,sans-Serif" font-size="10.00"> </text>
<polygon fill="#666666" stroke="#666666" points="204.5,-195 204.5,-195 255.5,-195 255.5,-195 204.5,-195"/>
<polygon fill="#666666" stroke="#666666" points="204.5,-180 204.5,-180 220.5,-180 220.5,-180 204.5,-180"/>
<polygon fill="#666666" stroke="#666666" points="220.5,-180 220.5,-180 255.5,-180 255.5,-180 220.5,-180"/>
<polygon fill="none" stroke="#666666" points="204,-163.5 204,-212.5 255,-212.5 255,-163.5 204,-163.5"/>
</a>
</g>
</g>
<!-- Node4&#45;&gt;Node1 -->
<g id="edge3_Node000001_Node000004" class="edge">
<title>Node4&#45;&gt;Node1</title>
<g id="a_edge3_Node000001_Node000004"><a xlink:title=" ">
<path fill="none" stroke="#63b8ff" d="M229.5,-163.17C229.5,-136.38 229.5,-92.57 229.5,-61.58"/>
<polygon fill="none" stroke="#63b8ff" points="229.5,-61.16 225.5,-55.16 229.5,-49.16 233.5,-55.16 229.5,-61.16"/>
</a>
</g>
<text text-anchor="middle" x="248" y="-70" font-family="Helvetica,sans-Serif" font-size="10.00" fill="grey"> +disks</text>
</g>
<!-- Node5 -->
<g id="Node000005" class="node">
<title>Node5</title>
<g id="a_Node000005"><a xlink:href="../../dd/d20/structDiskStats.html" target="_top" xlink:title="Structure to hold disk partition information.">
<polygon fill="white" stroke="transparent" points="260.5,-511 168.5,-511 168.5,-342 260.5,-342 260.5,-511"/>
<text text-anchor="start" x="191" y="-498.5" font-family="Helvetica,sans-Serif" font-size="10.00">DiskStats</text>
<text text-anchor="start" x="172.5" y="-483.5" font-family="Helvetica,sans-Serif" font-size="10.00">+</text>
<text text-anchor="start" x="185.5" y="-483.5" font-family="Helvetica,sans-Serif" font-size="10.00">available</text>
<text text-anchor="start" x="172.5" y="-468.5" font-family="Helvetica,sans-Serif" font-size="10.00">+</text>
<text text-anchor="start" x="185.5" y="-468.5" font-family="Helvetica,sans-Serif" font-size="10.00">device</text>
<text text-anchor="start" x="172.5" y="-453.5" font-family="Helvetica,sans-Serif" font-size="10.00">+</text>
<text text-anchor="start" x="185.5" y="-453.5" font-family="Helvetica,sans-Serif" font-size="10.00">free</text>
<text text-anchor="start" x="172.5" y="-438.5" font-family="Helvetica,sans-Serif" font-size="10.00">+</text>
<text text-anchor="start" x="185.5" y="-438.5" font-family="Helvetica,sans-Serif" font-size="10.00">io_in_progress</text>
<text text-anchor="start" x="172.5" y="-423.5" font-family="Helvetica,sans-Serif" font-size="10.00">+</text>
<text text-anchor="start" x="185.5" y="-423.5" font-family="Helvetica,sans-Serif" font-size="10.00">mount_point</text>
<text text-anchor="start" x="172.5" y="-408.5" font-family="Helvetica,sans-Serif" font-size="10.00">+</text>
<text text-anchor="start" x="185.5" y="-408.5" font-family="Helvetica,sans-Serif" font-size="10.00">reads</text>
<text text-anchor="start" x="172.5" y="-393.5" font-family="Helvetica,sans-Serif" font-size="10.00">+</text>
<text text-anchor="start" x="185.5" y="-393.5" font-family="Helvetica,sans-Serif" font-size="10.00">total</text>
<text text-anchor="start" x="172.5" y="-378.5" font-family="Helvetica,sans-Serif" font-size="10.00">+</text>
<text text-anchor="start" x="185.5" y="-378.5" font-family="Helvetica,sans-Serif" font-size="10.00">usage</text>
<text text-anchor="start" x="172.5" y="-363.5" font-family="Helvetica,sans-Serif" font-size="10.00">+</text>
<text text-anchor="start" x="185.5" y="-363.5" font-family="Helvetica,sans-Serif" font-size="10.00">writes</text>
<text text-anchor="start" x="212.5" y="-348.5" font-family="Helvetica,sans-Serif" font-size="10.00"> </text>
<polygon fill="#666666" stroke="#666666" points="168.5,-493.5 168.5,-493.5 260.5,-493.5 260.5,-493.5 168.5,-493.5"/>
<polygon fill="#666666" stroke="#666666" points="168.5,-358.5 168.5,-358.5 183.5,-358.5 183.5,-358.5 168.5,-358.5"/>
<polygon fill="#666666" stroke="#666666" points="183.5,-358.5 183.5,-358.5 260.5,-358.5 260.5,-358.5 183.5,-358.5"/>
<polygon fill="none" stroke="#666666" points="168.5,-342 168.5,-511 260.5,-511 260.5,-342 168.5,-342"/>
</a>
</g>
</g>
<!-- Node5&#45;&gt;Node4 -->
<g id="edge4_Node000004_Node000005" class="edge">
<title>Node5&#45;&gt;Node4</title>
<g id="a_edge4_Node000004_Node000005"><a xlink:title=" ">
<path fill="none" stroke="#63b8ff" d="M219.81,-341.79C222.35,-301.67 225.27,-255.75 227.23,-224.81"/>
<polygon fill="none" stroke="#63b8ff" points="227.25,-224.5 223.64,-218.26 228.01,-212.53 231.62,-218.77 227.25,-224.5"/>
</a>
</g>
<text text-anchor="middle" x="241" y="-301" font-family="Helvetica,sans-Serif" font-size="10.00" fill="grey"> +disks</text>
</g>
<!-- Node6 -->
<g id="Node000006" class="node">
<title>Node6</title>
<g id="a_Node000006"><a xlink:href="../../dc/d66/structGPUInfo.html" target="_top" xlink:title="Structure to hold all GPU information.">
<polygon fill="white" stroke="transparent" points="375.5,-220 273.5,-220 273.5,-156 375.5,-156 375.5,-220"/>
<text text-anchor="start" x="304.5" y="-208" font-family="Helvetica,sans-Serif" font-size="10.00">GPUInfo</text>
<text text-anchor="start" x="277.5" y="-193" font-family="Helvetica,sans-Serif" font-size="10.00">+</text>
<text text-anchor="start" x="290.5" y="-193" font-family="Helvetica,sans-Serif" font-size="10.00">count</text>
<text text-anchor="start" x="277.5" y="-178" font-family="Helvetica,sans-Serif" font-size="10.00">+</text>
<text text-anchor="start" x="290.5" y="-178" font-family="Helvetica,sans-Serif" font-size="10.00">nvidia_available</text>
<text text-anchor="start" x="322.5" y="-163" font-family="Helvetica,sans-Serif" font-size="10.00"> </text>
<polygon fill="#666666" stroke="#666666" points="273.5,-203 273.5,-203 375.5,-203 375.5,-203 273.5,-203"/>
<polygon fill="#666666" stroke="#666666" points="273.5,-173 273.5,-173 288.5,-173 288.5,-173 273.5,-173"/>
<polygon fill="#666666" stroke="#666666" points="288.5,-173 288.5,-173 375.5,-173 375.5,-173 288.5,-173"/>
<polygon fill="none" stroke="#666666" points="273.5,-156 273.5,-220 375.5,-220 375.5,-156 273.5,-156"/>
</a>
</g>
</g>
<!-- Node6&#45;&gt;Node1 -->
<g id="edge5_Node000001_Node000006" class="edge">
<title>Node6&#45;&gt;Node1</title>
<g id="a_edge5_Node000001_Node000006"><a xlink:title=" ">
<path fill="none" stroke="#63b8ff" d="M313.99,-155.84C304.68,-130.64 289.62,-94.88 270.5,-67 268.51,-64.1 266.31,-61.23 263.99,-58.42"/>
<polygon fill="none" stroke="#63b8ff" points="263.77,-58.18 256.79,-56.37 255.78,-49.23 262.76,-51.04 263.77,-58.18"/>
</a>
</g>
<text text-anchor="middle" x="294" y="-70" font-family="Helvetica,sans-Serif" font-size="10.00" fill="grey"> +gpus</text>
</g>
<!-- Node7 -->
<g id="Node000007" class="node">
<title>Node7</title>
<g id="a_Node000007"><a xlink:href="../../df/d93/structGPUStats.html" target="_top" xlink:title="Structure to hold GPU statistics.">
<polygon fill="white" stroke="transparent" points="370,-511 279,-511 279,-342 370,-342 370,-511"/>
<text text-anchor="start" x="302" y="-498.5" font-family="Helvetica,sans-Serif" font-size="10.00">GPUStats</text>
<text text-anchor="start" x="283.5" y="-483.5" font-family="Helvetica,sans-Serif" font-size="10.00">+</text>
<text text-anchor="start" x="296.5" y="-483.5" font-family="Helvetica,sans-Serif" font-size="10.00">fan_speed</text>
<text text-anchor="start" x="283.5" y="-468.5" font-family="Helvetica,sans-Serif" font-size="10.00">+</text>
<text text-anchor="start" x="296.5" y="-468.5" font-family="Helvetica,sans-Serif" font-size="10.00">memory_free</text>
<text text-anchor="start" x="283.5" y="-453.5" font-family="Helvetica,sans-Serif" font-size="10.00">+</text>
<text text-anchor="start" x="296.5" y="-453.5" font-family="Helvetica,sans-Serif" font-size="10.00">memory_total</text>
<text text-anchor="start" x="283.5" y="-438.5" font-family="Helvetica,sans-Serif" font-size="10.00">+</text>
<text text-anchor="start" x="296.5" y="-438.5" font-family="Helvetica,sans-Serif" font-size="10.00">memory_used</text>
<text text-anchor="start" x="283.5" y="-423.5" font-family="Helvetica,sans-Serif" font-size="10.00">+</text>
<text text-anchor="start" x="296.5" y="-423.5" font-family="Helvetica,sans-Serif" font-size="10.00">name</text>
<text text-anchor="start" x="283.5" y="-408.5" font-family="Helvetica,sans-Serif" font-size="10.00">+</text>
<text text-anchor="start" x="296.5" y="-408.5" font-family="Helvetica,sans-Serif" font-size="10.00">power_usage</text>
<text text-anchor="start" x="283.5" y="-393.5" font-family="Helvetica,sans-Serif" font-size="10.00">+</text>
<text text-anchor="start" x="296.5" y="-393.5" font-family="Helvetica,sans-Serif" font-size="10.00">supported</text>
<text text-anchor="start" x="283.5" y="-378.5" font-family="Helvetica,sans-Serif" font-size="10.00">+</text>
<text text-anchor="start" x="296.5" y="-378.5" font-family="Helvetica,sans-Serif" font-size="10.00">temperature</text>
<text text-anchor="start" x="283.5" y="-363.5" font-family="Helvetica,sans-Serif" font-size="10.00">+</text>
<text text-anchor="start" x="296.5" y="-363.5" font-family="Helvetica,sans-Serif" font-size="10.00">utilization</text>
<text text-anchor="start" x="323" y="-348.5" font-family="Helvetica,sans-Serif" font-size="10.00"> </text>
<polygon fill="#666666" stroke="#666666" points="279.5,-493.5 279.5,-493.5 370.5,-493.5 370.5,-493.5 279.5,-493.5"/>
<polygon fill="#666666" stroke="#666666" points="279.5,-358.5 279.5,-358.5 294.5,-358.5 294.5,-358.5 279.5,-358.5"/>
<polygon fill="#666666" stroke="#666666" points="294.5,-358.5 294.5,-358.5 370.5,-358.5 370.5,-358.5 294.5,-358.5"/>
<polygon fill="none" stroke="#666666" points="279,-342 279,-511 370,-511 370,-342 279,-342"/>
</a>
</g>
</g>
<!-- Node7&#45;&gt;Node6 -->
<g id="edge6_Node000006_Node000007" class="edge">
<title>Node7&#45;&gt;Node6</title>
<g id="a_edge6_Node000006_Node000007"><a xlink:title=" ">
<path fill="none" stroke="#63b8ff" d="M324.5,-341.79C324.5,-304.93 324.5,-263.17 324.5,-232.63"/>
<polygon fill="none" stroke="#63b8ff" points="324.5,-232.28 320.5,-226.28 324.5,-220.28 328.5,-226.28 324.5,-232.28"/>
</a>
</g>
<text text-anchor="middle" x="342" y="-301" font-family="Helvetica,sans-Serif" font-size="10.00" fill="grey"> +gpus</text>
</g>
<!-- Node8 -->
<g id="Node000008" class="node">
<title>Node8</title>
<g id="a_Node000008"><a xlink:href="../../d4/d7b/structNetworkStats.html" target="_top" xlink:title="Structure to hold all network interface statistics.">
<polygon fill="white" stroke="transparent" points="494,-212.5 397,-212.5 397,-163.5 494,-163.5 494,-212.5"/>
<text text-anchor="start" x="412.5" y="-200" font-family="Helvetica,sans-Serif" font-size="10.00">NetworkStats</text>
<text text-anchor="start" x="401.5" y="-185" font-family="Helvetica,sans-Serif" font-size="10.00">+</text>
<text text-anchor="start" x="414.5" y="-185" font-family="Helvetica,sans-Serif" font-size="10.00">interface_count</text>
<text text-anchor="start" x="444" y="-170" font-family="Helvetica,sans-Serif" font-size="10.00"> </text>
<polygon fill="#666666" stroke="#666666" points="397.5,-195 397.5,-195 494.5,-195 494.5,-195 397.5,-195"/>
<polygon fill="#666666" stroke="#666666" points="397.5,-180 397.5,-180 412.5,-180 412.5,-180 397.5,-180"/>
<polygon fill="#666666" stroke="#666666" points="412.5,-180 412.5,-180 494.5,-180 494.5,-180 412.5,-180"/>
<polygon fill="none" stroke="#666666" points="397,-163.5 397,-212.5 494,-212.5 494,-163.5 397,-163.5"/>
</a>
</g>
</g>
<!-- Node8&#45;&gt;Node1 -->
<g id="edge7_Node000001_Node000008" class="edge">
<title>Node8&#45;&gt;Node1</title>
<g id="a_edge7_Node000001_Node000008"><a xlink:title=" ">
<path fill="none" stroke="#63b8ff" d="M434.39,-163.41C423.92,-143.28 406.55,-114.7 384.5,-96 353.08,-69.34 309.93,-50.81 277.13,-39.47"/>
<polygon fill="none" stroke="#63b8ff" points="276.94,-39.4 269.98,-41.3 265.56,-35.61 272.51,-33.71 276.94,-39.4"/>
</a>
</g>
<text text-anchor="middle" x="384.5" y="-70" font-family="Helvetica,sans-Serif" font-size="10.00" fill="grey"> +network</text>
</g>
<!-- Node9 -->
<g id="Node000009" class="node">
<title>Node9</title>
<g id="a_Node000009"><a xlink:href="../../dc/d2f/structNetworkInterfaceStats.html" target="_top" xlink:title="Structure to hold statistics for a single network interface.">
<polygon fill="white" stroke="transparent" points="508.5,-526 388.5,-526 388.5,-327 508.5,-327 508.5,-526"/>
<text text-anchor="start" x="393.5" y="-513.5" font-family="Helvetica,sans-Serif" font-size="10.00">NetworkInterfaceStats</text>
<text text-anchor="start" x="396" y="-498.5" font-family="Helvetica,sans-Serif" font-size="10.00">+</text>
<text text-anchor="start" x="412.5" y="-498.5" font-family="Helvetica,sans-Serif" font-size="10.00">bytes_received</text>
<text text-anchor="start" x="396" y="-483.5" font-family="Helvetica,sans-Serif" font-size="10.00">+</text>
<text text-anchor="start" x="412.5" y="-483.5" font-family="Helvetica,sans-Serif" font-size="10.00">bytes_sent</text>
<text text-anchor="start" x="396" y="-468.5" font-family="Helvetica,sans-Serif" font-size="10.00">+</text>
<text text-anchor="start" x="412.5" y="-468.5" font-family="Helvetica,sans-Serif" font-size="10.00">drops_in</text>
<text text-anchor="start" x="396" y="-453.5" font-family="Helvetica,sans-Serif" font-size="10.00">+</text>
<text text-anchor="start" x="412.5" y="-453.5" font-family="Helvetica,sans-Serif" font-size="10.00">drops_out</text>
<text text-anchor="start" x="396" y="-438.5" font-family="Helvetica,sans-Serif" font-size="10.00">+</text>
<text text-anchor="start" x="412.5" y="-438.5" font-family="Helvetica,sans-Serif" font-size="10.00">errors_in</text>
<text text-anchor="start" x="396" y="-423.5" font-family="Helvetica,sans-Serif" font-size="10.00">+</text>
<text text-anchor="start" x="412.5" y="-423.5" font-family="Helvetica,sans-Serif" font-size="10.00">errors_out</text>
<text text-anchor="start" x="396" y="-408.5" font-family="Helvetica,sans-Serif" font-size="10.00">+</text>
<text text-anchor="start" x="412.5" y="-408.5" font-family="Helvetica,sans-Serif" font-size="10.00">interface</text>
<text text-anchor="start" x="396" y="-393.5" font-family="Helvetica,sans-Serif" font-size="10.00">+</text>
<text text-anchor="start" x="412.5" y="-393.5" font-family="Helvetica,sans-Serif" font-size="10.00">packets_received</text>
<text text-anchor="start" x="396" y="-378.5" font-family="Helvetica,sans-Serif" font-size="10.00">+</text>
<text text-anchor="start" x="412.5" y="-378.5" font-family="Helvetica,sans-Serif" font-size="10.00">packets_sent</text>
<text text-anchor="start" x="396" y="-363.5" font-family="Helvetica,sans-Serif" font-size="10.00">+</text>
<text text-anchor="start" x="412.5" y="-363.5" font-family="Helvetica,sans-Serif" font-size="10.00">receive_speed</text>
<text text-anchor="start" x="396" y="-348.5" font-family="Helvetica,sans-Serif" font-size="10.00">+</text>
<text text-anchor="start" x="412.5" y="-348.5" font-family="Helvetica,sans-Serif" font-size="10.00">send_speed</text>
<text text-anchor="start" x="446.5" y="-333.5" font-family="Helvetica,sans-Serif" font-size="10.00"> </text>
<polygon fill="#666666" stroke="#666666" points="388.5,-508.5 388.5,-508.5 508.5,-508.5 508.5,-508.5 388.5,-508.5"/>
<polygon fill="#666666" stroke="#666666" points="388.5,-343.5 388.5,-343.5 410.5,-343.5 410.5,-343.5 388.5,-343.5"/>
<polygon fill="#666666" stroke="#666666" points="410.5,-343.5 410.5,-343.5 508.5,-343.5 508.5,-343.5 410.5,-343.5"/>
<polygon fill="none" stroke="#666666" points="388.5,-327 388.5,-526 508.5,-526 508.5,-327 388.5,-327"/>
</a>
</g>
</g>
<!-- Node9&#45;&gt;Node8 -->
<g id="edge8_Node000008_Node000009" class="edge">
<title>Node9&#45;&gt;Node8</title>
<g id="a_edge8_Node000008_Node000009"><a xlink:title=" ">
<path fill="none" stroke="#63b8ff" d="M447.25,-326.92C446.79,-290.75 446.3,-252.07 445.96,-224.9"/>
<polygon fill="none" stroke="#63b8ff" points="445.95,-224.55 441.88,-218.6 445.8,-212.55 449.87,-218.5 445.95,-224.55"/>
</a>
</g>
<text text-anchor="middle" x="478" y="-301" font-family="Helvetica,sans-Serif" font-size="10.00" fill="grey"> +interfaces</text>
</g>
</g>
</svg>

<g id="navigator" transform="translate(0 0)" fill="#404254">
  <rect fill="#f2f5e9" fill-opacity="0.5" stroke="#606060" stroke-width=".5" x="0" y="0" width="60" height="60"/>
  <use id="zoomplus" xlink:href="#zoomPlus" x="17" y="9" onmousedown="handleZoom(evt,'in')"/>
  <use id="zoomminus" xlink:href="#zoomMin" x="42" y="9" onmousedown="handleZoom(evt,'out')"/>
  <use id="reset" xlink:href="#resetDef" x="30" y="36" onmousedown="handleReset()"/>
   <use id="arrowup" xlink:href="#arrowUp" x="0" y="0" onmousedown="handlePan(0,-1)"/>
  <use id="arrowright" xlink:href="#arrowRight" x="0" y="0" onmousedown="handlePan(1,0)"/>
  <use id="arrowdown" xlink:href="#arrowDown" x="0" y="0" onmousedown="handlePan(0,1)"/>
  <use id="arrowleft" xlink:href="#arrowLeft" x="0" y="0" onmousedown="handlePan(-1,0)"/>
</g>
<svg viewBox="0 0 15 15" width="100%" height="30px" preserveAspectRatio="xMaxYMin meet">
 <g id="arrow_out" transform="scale(0.3 0.3)">
  <a xlink:href="structSystemStats__coll__graph_org.svg" target="_base">
   <rect id="button" ry="5" rx="5" y="6" x="6" height="38" width="38"
        fill="#f2f5e9" fill-opacity="0.5" stroke="#606060" stroke-width="1.0"/>
   <path id="arrow"
     d="M 11.500037,31.436501 C 11.940474,20.09759 22.043105,11.32322 32.158766,21.979434 L 37.068811,17.246167 C 37.068811,17.246167 37.088388,32 37.088388,32 L 22.160133,31.978069 C 22.160133,31.978069 26.997745,27.140456 26.997745,27.140456 C 18.528582,18.264221 13.291696,25.230495 11.500037,31.436501 z"
     style="fill:#404040;"/>
  </a>
 </g>
</svg>

<style type='text/css'>
<![CDATA[
[data-mouse-over-selected='false'] { opacity: 0.7; }
[data-mouse-over-selected='true']  { opacity: 1.0; }
]]>
</style>
<script type="application/ecmascript"><![CDATA[
document.addEventListener('DOMContentLoaded', (event) => {
  highlightEdges();
  highlightAdjacentNodes();
});
]]></script>
</svg>
