<?xml version="1.0" encoding="UTF-8" standalone="no"?>
<!DOCTYPE svg PUBLIC "-//W3C//DTD SVG 1.1//EN"
 "http://www.w3.org/Graphics/SVG/1.1/DTD/svg11.dtd">
<!-- Generated by graphviz version 2.43.0 (0)
 -->
<!-- Title: NVMLFunctions Pages: 1 -->
<svg width="180pt" height="218pt"
 viewBox="0.00 0.00 180.00 218.00" xmlns="http://www.w3.org/2000/svg" xmlns:xlink="http://www.w3.org/1999/xlink">
<g id="graph0" class="graph" transform="scale(1 1) rotate(0) translate(4 214)">
<title>NVMLFunctions</title>
<!-- Node1 -->
<g id="Node000001" class="node">
<title>Node1</title>
<g id="a_Node000001"><a xlink:title=" ">
<polygon fill="#999999" stroke="transparent" points="172,-210 0,-210 0,0 172,0 172,-210"/>
<text text-anchor="start" x="48" y="-198" font-family="Helvetica,sans-Serif" font-size="10.00">NVMLFunctions</text>
<text text-anchor="start" x="4" y="-183" font-family="Helvetica,sans-Serif" font-size="10.00">+</text>
<text text-anchor="start" x="17" y="-183" font-family="Helvetica,sans-Serif" font-size="10.00">handle</text>
<text text-anchor="start" x="4" y="-168" font-family="Helvetica,sans-Serif" font-size="10.00">+</text>
<text text-anchor="start" x="17" y="-168" font-family="Helvetica,sans-Serif" font-size="10.00">nvmlDeviceGetCount</text>
<text text-anchor="start" x="4" y="-153" font-family="Helvetica,sans-Serif" font-size="10.00">+</text>
<text text-anchor="start" x="17" y="-153" font-family="Helvetica,sans-Serif" font-size="10.00">nvmlDeviceGetFanSpeed</text>
<text text-anchor="start" x="4" y="-138" font-family="Helvetica,sans-Serif" font-size="10.00">+</text>
<text text-anchor="start" x="17" y="-138" font-family="Helvetica,sans-Serif" font-size="10.00">nvmlDeviceGetHandleByIndex</text>
<text text-anchor="start" x="4" y="-123" font-family="Helvetica,sans-Serif" font-size="10.00">+</text>
<text text-anchor="start" x="17" y="-123" font-family="Helvetica,sans-Serif" font-size="10.00">nvmlDeviceGetMemoryInfo</text>
<text text-anchor="start" x="4" y="-108" font-family="Helvetica,sans-Serif" font-size="10.00">+</text>
<text text-anchor="start" x="17" y="-108" font-family="Helvetica,sans-Serif" font-size="10.00">nvmlDeviceGetName</text>
<text text-anchor="start" x="4" y="-93" font-family="Helvetica,sans-Serif" font-size="10.00">+</text>
<text text-anchor="start" x="17" y="-93" font-family="Helvetica,sans-Serif" font-size="10.00">nvmlDeviceGetPowerUsage</text>
<text text-anchor="start" x="4" y="-78" font-family="Helvetica,sans-Serif" font-size="10.00">+</text>
<text text-anchor="start" x="17" y="-78" font-family="Helvetica,sans-Serif" font-size="10.00">nvmlDeviceGetTemperature</text>
<text text-anchor="start" x="4" y="-63" font-family="Helvetica,sans-Serif" font-size="10.00">+</text>
<text text-anchor="start" x="17" y="-63" font-family="Helvetica,sans-Serif" font-size="10.00">nvmlDeviceGetUtilization</text>
<text text-anchor="start" x="17" y="-52" font-family="Helvetica,sans-Serif" font-size="10.00">Rates</text>
<text text-anchor="start" x="4" y="-37" font-family="Helvetica,sans-Serif" font-size="10.00">+</text>
<text text-anchor="start" x="17" y="-37" font-family="Helvetica,sans-Serif" font-size="10.00">nvmlInit</text>
<text text-anchor="start" x="4" y="-22" font-family="Helvetica,sans-Serif" font-size="10.00">+</text>
<text text-anchor="start" x="17" y="-22" font-family="Helvetica,sans-Serif" font-size="10.00">nvmlShutdown</text>
<text text-anchor="start" x="84" y="-7" font-family="Helvetica,sans-Serif" font-size="10.00"> </text>
<polygon fill="#666666" stroke="#666666" points="0,-193 0,-193 172,-193 172,-193 0,-193"/>
<polygon fill="#666666" stroke="#666666" points="0,-17 0,-17 15,-17 15,-17 0,-17"/>
<polygon fill="#666666" stroke="#666666" points="15,-17 15,-17 172,-17 172,-17 15,-17"/>
<polygon fill="none" stroke="#666666" points="0,0 0,-210 172,-210 172,0 0,0"/>
</a>
</g>
</g>
</g>
</svg>
